<?xml version="1.0" encoding="UTF-8"?>
<svg xmlns="http://www.w3.org/2000/svg" version="1.1" viewBox="0 0 64 64">
  <!-- Generator: Adobe Illustrator 28.7.1, SVG Export Plug-In . SVG Version: 1.2.0 Build 142)  -->
  <g>
    <g id="Glyph">
      <g>
        <path d="M15.00076,18.16557c0-.42999-.08588-.83649-.21204-1.22498l4.49268-2.85901c.71497.66711,1.66675,1.08398,2.71936,1.08398,2.20557,0,4-1.79443,4-4s-1.79443-4-4-4-4,1.79443-4,4c0,.42999.08588.83649.21204,1.22498l-4.49268,2.85901c-.71497-.66711-1.66675-1.08398-2.71936-1.08398-2.20557,0-4,1.79443-4,4,0,1.85828,1.27972,3.41071,3,3.85797v6.28406c-1.72028.44727-3,1.99969-3,3.85797,0,2.20557,1.79443,4,4,4s4-1.79443,4-4c0-1.85828-1.27972-3.41071-3-3.85797v-6.28406c1.72028-.44727,3-1.99969,3-3.85797Z"/>
        <path d="M55.00027,17.70072l-14.72211-8.49982.49994-.86591c.27588-.47852.1123-1.08984-.36621-1.36621-.47998-.27686-1.09033-.11182-1.36621.36621l-5,8.66016c-.27588.47852-.1123,1.08984.36661,1.36644.47377.27253,1.09177.10821,1.36581-.36644l.49982-.86572,14.72234,8.5c1.85181,1.06915,4.37451.42277,5.46436-1.46435,1.10205-1.91016.44531-4.36133-1.46436-5.46436Z"/>
        <path d="M52.00076,27.16557H18.00076c-1.10455,0-2,.89539-2,2,0,1.10455.89545,2,2,2h34c1.10455,0,2-.89545,2-2,0-1.10461-.89545-2-2-2Z"/>
        <path d="M22.00076,39.43119v14.73438c0,1.6543,1.3457,3,3,3h24c1.6543,0,3-1.3457,3-3v-21H18.42056l3.5802,6.26562ZM45.00076,50.16557c-.55225,0-1-.44775-1-1s.44775-1,1-1h1v-2h-3c-.55225,0-1-.44775-1-1s.44775-1,1-1h3v-2h-1c-.55225,0-1-.44775-1-1s.44775-1,1-1h1v-2h-3c-.55225,0-1-.44775-1-1s.44775-1,1-1h4c.55225,0,1,.44775,1,1v16c0,.55225-.44775,1-1,1h-4c-.55225,0-1-.44775-1-1s.44775-1,1-1h3v-2h-1Z"/>
      </g>
    </g>
  </g>
</svg>