<?xml version="1.0" encoding="UTF-8"?>
<svg xmlns="http://www.w3.org/2000/svg" version="1.1" viewBox="0 0 48 48">
  <!-- Generator: Adobe Illustrator 28.7.1, SVG Export Plug-In . SVG Version: 1.2.0 Build 142)  -->
  <g>
    <g id="Glyph">
      <g>
        <path d="M41,13.17999v22.82001c0,2.76001-2.23999,5-5,5H13.17999c.41003,1.15997,1.52002,2,2.82001,2h24c1.65002,0,3-1.35004,3-3v-24c0-1.29999-.84003-2.41003-2-2.82001Z"/>
        <path d="M34.82001,7c-.41003-1.16003-1.52002-2-2.82001-2H8c-1.65002,0-3,1.34998-3,3v24c0,1.29999.84003,2.40997,2,2.82001V12c0-2.76001,2.23999-5,5-5h22.82001Z"/>
        <path d="M31.12939,17.75l-9.67236,9.67139c-.39062.39062-1.02344.39062-1.41406,0l-3.17187-3.17138c-.38551-.38545-1.02861-.38597-1.41358,0-.39014.38965-.39014,1.02393,0,1.41406l4.58545,4.58594c.37793.37793,1.03662.37793,1.41406,0l11.08594-11.08594c.38965-.39014.38965-1.02441,0-1.41406-.37793-.37793-1.03662-.37793-1.41357,0Z"/>
        <path d="M39,36V12c0-1.6543-1.3457-3-3-3H12c-1.6543,0-3,1.3457-3,3v24c0,1.6543,1.3457,3,3,3h24c1.6543,0,3-1.3457,3-3ZM33.95752,20.57812l-11.08643,11.08594c-.56641.56689-1.31982.87891-2.12109.87891s-1.55469-.31201-2.12158-.87891l-4.58545-4.58594c-1.16943-1.16992-1.16943-3.07324,0-4.24219,1.13281-1.13379,3.10889-1.13379,4.24268,0l2.46436,2.46436,8.96484-8.96436c1.13281-1.13379,3.10889-1.13379,4.24268,0,1.16895,1.16895,1.16895,3.07227,0,4.24219Z"/>
      </g>
    </g>
  </g>
</svg>