<?xml version="1.0" encoding="UTF-8"?>
<svg xmlns="http://www.w3.org/2000/svg" version="1.1" viewBox="0 0 48 48">
  <!-- Generator: Adobe Illustrator 28.7.1, SVG Export Plug-In . SVG Version: 1.2.0 Build 142)  -->
  <g>
    <g id="Glyph">
      <path d="M33.10107,25c.46466,2.2793,2.4845,4,4.89893,4,2.75684,0,5-2.24316,5-5s-2.24316-5-5-5c-2.41443,0-4.43427,1.7207-4.89893,4h-3.19141c-.1535-.90936-.50989-1.7489-1.02454-2.47107l4.6438-4.6438c.98102.6991,2.17725,1.11487,3.47107,1.11487,3.30859,0,6-2.69141,6-6s-2.69141-6-6-6-6,2.69141-6,6c0,1.29382.41577,2.49005,1.11487,3.47107l-4.6438,4.6438c-.98102-.6991-2.17725-1.11487-3.47107-1.11487s-2.49005.41577-3.47107,1.11487l-4.6438-4.6438c.6991-.98102,1.11487-2.17725,1.11487-3.47107,0-3.30859-2.69141-6-6-6s-6,2.69141-6,6,2.69141,6,6,6c1.29382,0,2.49005-.41577,3.47107-1.11487l4.6438,4.6438c-.51465.72217-.87103,1.56171-1.02454,2.47107h-3.19141c-.46466-2.2793-2.4845-4-4.89893-4-2.75684,0-5,2.24316-5,5s2.24316,5,5,5c2.41443,0,4.43427-1.7207,4.89893-4h3.19141c.1535.90936.50989,1.7489,1.02454,2.47107l-4.6438,4.6438c-.98102-.6991-2.17725-1.11487-3.47107-1.11487-3.30859,0-6,2.69141-6,6s2.69141,6,6,6,6-2.69141,6-6c0-1.29382-.41577-2.49005-1.11487-3.47107l4.6438-4.6438c.98102.6991,2.17725,1.11487,3.47107,1.11487s2.49005-.41577,3.47107-1.11487l4.6438,4.6438c-.6991.98102-1.11487,2.17725-1.11487,3.47107,0,3.30859,2.69141,6,6,6s6-2.69141,6-6-2.69141-6-6-6c-1.29382,0-2.49005.41577-3.47107,1.11487l-4.6438-4.6438c.51465-.72217.87103-1.56171,1.02454-2.47107h3.19141Z"/>
    </g>
  </g>
</svg>