<?xml version="1.0" encoding="UTF-8"?>
<svg xmlns="http://www.w3.org/2000/svg" version="1.1" viewBox="0 0 48 48">
  <!-- Generator: Adobe Illustrator 28.7.1, SVG Export Plug-In . SVG Version: 1.2.0 Build 142)  -->
  <g>
    <g id="Glyph">
      <g>
        <path d="M26.53003,36.46997c-.63,0-1.23004-.20996-1.73004-.58997-.5.38-1.10999.58997-1.72998.58997h-1.73999c-.61005,0-1.22003-.20996-1.72003-.57996l-3.45996-2.60004c-.72003-.52997-1.15002-1.39001-1.15002-2.28998,0-.90002.42999-1.76001,1.15002-2.29999l3.45996-2.59003c.5-.37,1.10999-.58002,1.72003-.58002h7.66998v-2.52997c0-.81-.32001-1.57001-.87-2.10999-.56-.57001-1.32001-.89001-2.13-.89001v-5c0-4.87891-4.12158-9-9-9-4.9624,0-9,4.03711-9,9v5c-1.65002,0-3,1.34998-3,3v16c0,.81.32001,1.57001.87,2.10999.56.57001,1.32001.89001,2.13.89001h18c1.65002,0,3-1.35004,3-3v-2.54004c-.40997-.00995-.81-.12-1.16998-.29999-.39001.20001-.84003.31-1.29999.31ZM14,15c0-1.6543,1.3457-3,3-3,1.62598,0,3,1.37402,3,3v5h-6v-5Z"/>
        <circle cx="38.5" cy="31" r="1"/>
        <path d="M36.93335,24.93329c-1.98303,0-3.8446.98431-4.97321,2.60004h-10.62683c-.18744,0-.36981.06091-.52008.17352l-3.46667,2.59998c-.21832.16333-.34656.42065-.34656.69318s.12823.52979.34656.69318l3.46667,2.59998c.15027.11255.33264.17352.52008.17352h1.73334c.2298,0,.45026-.09143.61279-.25391l1.12054-1.12061,1.12061,1.12061c.3385.3385.88696.3385,1.22552,0l.88312-.88275.32886.65759c.14685.2937.44684.47906.77527.47906h2.82678c1.1286,1.61566,2.99017,2.59998,4.97321,2.59998,3.34521,0,6.06665-2.72186,6.06665-6.06665s-2.72144-6.06671-6.06665-6.06671ZM38.5,34c-1.6543,0-3-1.3457-3-3s1.3457-3,3-3,3,1.3457,3,3-1.3457,3-3,3Z"/>
      </g>
    </g>
  </g>
</svg>