<?xml version="1.0" encoding="UTF-8"?>
<svg id="Glyph" xmlns="http://www.w3.org/2000/svg" version="1.1" viewBox="0 0 64 64">
  <path d="M34,19.10748v-2.10748h1c3.85938,0,7-3.14014,7-7v-2c0-.55225-.44727-1-1-1h-2c-2.54761,0-4.77539,1.3728-6,3.41321-1.22461-2.04041-3.45239-3.41321-6-3.41321h-2c-.55273,0-1,.44775-1,1v2c0,3.85986,3.14062,7,7,7h1v2c-10.47656,0-19,8.52344-19,19s8.52344,19,19,19,19-8.52344,19-19c0-9.8009-7.46033-17.88959-17-18.89252ZM32,53c-8.27148,0-15-6.729-15-15s6.72852-15,15-15,15,6.729,15,15-6.72852,15-15,15Z" fill="#000" stroke-width="0"/>
  <path d="M25.18652,32.33838l1.47949.49268c.62109.20703,1.16797.62549,1.54199,1.17871l.64355.96533c.28027.41943.83105.56543,1.28125.34033l1.37988-.68994c.95215-.47607,2.10156-.40967,3.00195.17627l.47363.31934c.43848.29248,1.03223.19336,1.35254-.23242l1.48828-1.98828c.34863-.479.84863-.84473,1.43652-1.04639l1.05371-.34473c.40234-.13721.68066-.52051.68066-.94922v-1.91913c-2.3382-2.24927-5.5072-3.64093-9-3.64093-3.3728,0-6.43976,1.30206-8.75262,3.41608l1.34149,3.35248c.10645.27344.32812.48291.59766.56982Z" fill="#000" stroke-width="0"/>
  <path d="M42.961,31.03949c-.17584,1.08289-.93817,2.00208-2.00787,2.36676l-1.05273.34424c-.18359.06299-.34766.18164-.46191.33789l-1.49805,2.00146c-.95996,1.27441-2.74609,1.57666-4.06738.69092l-.46191-.31152c-.29395-.19141-.68262-.21484-1.00391-.05469l-1.37988.68994c-.42773.21387-.88477.31592-1.33691.31592-.97754,0-1.92969-.47656-2.50294-1.33594l-.63964-.95996c-.125-.18506-.30957-.32764-.51465-.396l-1.46973-.48975c-.82715-.26611-1.5166-.9165-1.83496-1.73633l-.98523-2.46088c-1.68237,2.16321-2.70013,4.86371-2.73535,7.80194l4.06238-.57397c1.52637-.22266,2.96191.73779,3.33984,2.23584l.27051,1.09424c.08789.34668.37305.63184.72559.72119l2.62695.65967c.20508.04297.43262.12646.64258.24023l1.29102.64453c.47949.24023.87012.58496,1.15918,1.02588l.80469,1.20264c.26074.39648.76855.55127,1.20898.37695l2.65723-1.06836c.78906-.31299,1.67773-.27539,2.44336.09961l2.26056,1.13031c1.56433-2.14618,2.49921-4.77905,2.49921-7.63226,0-2.56152-.75476-4.94543-2.039-6.96051Z" fill="#000" stroke-width="0"/>
  <path d="M38.53809,46.25977l-2.65527,1.06787c-1.32032.52588-2.8418.05176-3.61816-1.12744l-.80566-1.2041c-.09961-.15137-.22461-.26074-.38672-.3418l-1.31934-.65967c-.07031-.0376-.12012-.05518-.17188-.06641l-2.66406-.66846c-1.07324-.27197-1.90625-1.10498-2.17676-2.1748l-.27051-1.09473c-.125-.49561-.60352-.81885-1.11426-.74121l-4.20917.59485c.90021,6.29602,6.31317,11.15613,12.8537,11.15613,3.57574,0,6.8183-1.4519,9.17096-3.79633l-1.81842-.90924c-.25293-.12451-.55273-.13867-.81445-.03467Z" fill="#000" stroke-width="0"/>
</svg>