<?xml version="1.0" encoding="UTF-8"?>
<svg xmlns="http://www.w3.org/2000/svg" version="1.1" viewBox="0 0 64 64">
  <!-- Generator: Adobe Illustrator 28.7.1, SVG Export Plug-In . SVG Version: 1.2.0 Build 142)  -->
  <g>
    <g id="Glyph">
      <g>
        <path d="M40,55h-16c-.55273,0-1,.44727-1,1s.44727,1,1,1h16c.55273,0,1-.44727,1-1s-.44727-1-1-1Z"/>
        <path d="M36,27v5h2v-8.41992l-6-3.42871-6,3.42871v8.41992h2v-5c0-.55273.44727-1,1-1h6c.55273,0,1,.44727,1,1Z"/>
        <rect x="30" y="28" width="4" height="4"/>
        <path d="M32,7c-11.03003,0-20,8.96997-20,20,0,10.85999,18.59998,25.19,19.39001,25.78998.17999.14001.39996.21002.60999.21002s.42999-.07001.60999-.21002c.79004-.59998,19.39001-14.92999,19.39001-25.78998,0-11.03003-8.96997-20-20-20ZM32,41c-8.27002,0-15-6.73004-15-15s6.72998-15,15-15,15,6.72998,15,15-6.72998,15-15,15Z"/>
        <path d="M32,13c-7.16998,0-13,5.82996-13,13s5.83002,13,13,13,13-5.83002,13-13-5.83002-13-13-13ZM40,33c0,.54999-.45001,1-1,1h-14c-.54999,0-1-.45001-1-1v-10c0-.35999.19-.69.5-.87l7-4c.31-.17004.69-.17004,1,0l7,4c.31.17999.5.51001.5.87v10Z"/>
      </g>
    </g>
  </g>
</svg>