<?xml version="1.0" encoding="UTF-8"?>
<svg xmlns="http://www.w3.org/2000/svg" version="1.1" viewBox="0 0 64 64">
  <!-- Generator: Adobe Illustrator 28.7.1, SVG Export Plug-In . SVG Version: 1.2.0 Build 142)  -->
  <g>
    <g id="Glyph">
      <g>
        <circle cx="16.8834" cy="50" r="1"/>
        <circle cx="22.8834" cy="44" r="1"/>
        <path d="M12.26523,43h7.80243c.41412-1.1615,1.51379-2,2.81573-2s2.40161.8385,2.81573,2h7.80243l-3.61816-7.23633v-14.76367h1c.55273,0,1-.44727,1-1s-.44727-1-1-1H14.8834c-.55273,0-1,.44727-1,1s.44727,1,1,1h1v14.76367l-3.61816,7.23633Z"/>
        <path d="M34.50156,45h-8.80243c-.41412,1.1615-1.51379,2-2.81573,2s-2.40155-.8385-2.81567-2h-8.80249l-3.8291,7.6582c-.46875.93652-.41895,2.02832.13086,2.91895.55078.89062,1.50488,1.42285,2.55273,1.42285h25.52734c1.04785,0,2.00195-.53223,2.55273-1.42285.5498-.89062.59961-1.98242.13086-2.91895l-3.8291-7.6582ZM16.8834,53c-1.6543,0-3-1.3457-3-3s1.3457-3,3-3,3,1.3457,3,3-1.3457,3-3,3ZM23.8834,53c-.55231,0-1-.44775-1-1,0-.55231.44769-1,1-1s1,.44769,1,1c0,.55225-.44769,1-1,1ZM26.8834,50c-.55231,0-1-.44775-1-1,0-.55231.44769-1,1-1s1,.44769,1,1c0,.55225-.44769,1-1,1Z"/>
        <path d="M36.8834,21c.61407,0,1.18469-.18677,1.66071-.50458l3.48895,2.61597c-.08844.28259-.14966.57721-.14966.88861,0,1.6543,1.3457,3,3,3s3-1.3457,3-3-1.3457-3-3-3c-.61407,0-1.18469.18677-1.66071.50458l-3.48889-2.61597c.0885-.28265.1496-.57721.1496-.88861,0-.70441-.25409-1.34424-.66199-1.85669l2.01526-3.21765c.20886.04614.42419.07434.64673.07434,1.6543,0,3-1.3457,3-3s-1.3457-3-3-3-3,1.3457-3,3c0,.70441.25409,1.34424.66199,1.85669l-2.01526,3.21765c-.20886-.04614-.42419-.07434-.64673-.07434-1.6543,0-3,1.3457-3,3s1.3457,3,3,3Z"/>
        <path d="M54.8834,41v-1.5c0-.34003-.17999-.67004-.46997-.85004l-2.64001-1.64996-4.89001,3.04999v6.25l2.46997,1.54999c.16003.10004.35004.15002.53003.15002s.37-.04999.53003-.15002l1.10999-.69c-.41003-.63-.64001-1.37-.64001-2.15997,0-2.21002,1.78998-4,4-4Z"/>
        <path d="M50.8834,32.5c0-.34473-.17773-.66504-.46973-.84766l-4-2.5c-.32422-.20312-.73633-.20312-1.06055,0l-4,2.5c-.29199.18262-.46973.50293-.46973.84766v2.69592l5,3.125,5-3.125v-2.69592Z"/>
        <path d="M37.35312,38.65234c-.29199.18262-.46973.50293-.46973.84766v5c0,.34473.17773.66504.46973.84766l4,2.5c.16211.10156.34668.15234.53027.15234s.36816-.05078.53027-.15234l2.46973-1.54358v-6.25l-4.88654-3.05408-2.64374,1.65234Z"/>
        <circle cx="54.8834" cy="45" r="2"/>
      </g>
    </g>
  </g>
</svg>