<?xml version="1.0" encoding="UTF-8"?>
<svg xmlns="http://www.w3.org/2000/svg" version="1.1" viewBox="0 0 64 64">
  <!-- Generator: Adobe Illustrator 28.7.1, SVG Export Plug-In . SVG Version: 1.2.0 Build 142)  -->
  <g>
    <g id="Glyph">
      <g>
        <polygon points="21 41 22 41 26 41 26 39 21 39 21 41"/>
        <rect x="38" y="43" width="3" height="5"/>
        <polygon points="43 39 38 39 38 41 42 41 43 41 43 39"/>
        <path d="M38,26.48376l4.82324-2.06726-.79297-3.17383c-.08594-.34082.01465-.70117.2627-.94971l4.67383-4.67334-.52246-6.52704-8.44434-1.89307v19.28424Z"/>
        <path d="M55,16.60999v27.39001c0,.54999-.45001,1-1,1h-4v-13c0-.54999-.45001-1-1-1s-1,.45001-1,1v25h-10v-7h4c.54999,0,1-.45001,1-1v-6h1c.54999,0,1-.45001,1-1v-4c0-.54999-.45001-1-1-1h-6v-8.34003l6.39001-2.73999c.45001-.19.70001-.69.57996-1.15997l-.85999-3.45001,4.60004-4.60004c.19995-.20996.31-.5.28998-.78998l-.51001-6.37,1.27002.28998c3.09998.82001,5.23999,3.60004,5.23999,6.77002Z"/>
        <rect x="23" y="43" width="3" height="5"/>
        <path d="M36,7v47h-8V7h8Z"/>
        <path d="M19,38v4c0,.54999.45001,1,1,1h1v6c0,.54999.45001,1,1,1h4v7h-10v-25c0-.54999-.45001-1-1-1s-1,.45001-1,1v13h-4c-.54999,0-1-.45001-1-1v-27.39001c0-3.16998,2.14001-5.95001,5.20001-6.76001l1.38-.31-.58002,6.37c-.02002.29999.08002.59003.28998.79999l4.60004,4.60004-.85999,3.45001c-.12006.46997.12994.96997.57996,1.15997l6.39001,2.73999v8.34003h-6c-.54999,0-1,.45001-1,1Z"/>
        <path d="M17.03809,15.62354l4.66895,4.66943c.24805.24854.34863.60889.2627.94971l-.79297,3.17383,4.82324,2.06726V7.19958l-8.37299,1.87738-.58893,6.54657Z"/>
      </g>
    </g>
  </g>
</svg>