<?xml version="1.0" encoding="UTF-8"?>
<svg xmlns="http://www.w3.org/2000/svg" version="1.1" viewBox="0 0 64 64">
  <!-- Generator: Adobe Illustrator 28.7.1, SVG Export Plug-In . SVG Version: 1.2.0 Build 142)  -->
  <g>
    <g id="Glyph">
      <g>
        <path d="M28,21c0,2.20996,1.78998,4,4,4s4-1.79004,4-4-1.78998-4-4-4-4,1.78998-4,4ZM32,20c.54999,0,1,.45001,1,1s-.45001,1-1,1-1-.45001-1-1,.45001-1,1-1Z"/>
        <path d="M39.39001,25c3.64001,0,6.60999,2.96997,6.60999,6.60999,0,1.76001-.69,3.41998-1.94,4.66998l-4.77002,4.77002,5.66003,5.65997,4.76996-4.76996c2.76001-2.76001,4.28003-6.42999,4.28003-10.33002,0-8.06-6.54999-14.60999-14.60999-14.60999h-2.92999c.95996,1.06,1.53998,2.45996,1.53998,4s-.58002,2.94-1.53998,4h2.92999Z"/>
        <path d="M31,26.90997c-2.84003-.46997-5-2.94-5-5.90997s2.15997-5.44,5-5.91003v-2.08997h-12v14h12v-.09003Z"/>
        <path d="M29,8c0-.55225-.44775-1-1-1h-6c-.55225,0-1,.44775-1,1v3h8v-3Z"/>
        <path d="M29,32v-3h-8v3c0,.55225.44775,1,1,1h6c.55225,0,1-.44775,1-1Z"/>
        <polygon points="35 51 46.41406 51 35 39.58594 35 51"/>
        <rect x="25" y="39" width="8" height="12"/>
        <path d="M7,53v3c0,.55225.44775,1,1,1h48c.55225,0,1-.44775,1-1v-3H7Z"/>
        <path d="M10,45h13v-6h-13c-.54999,0-1,.45001-1,1v4c0,.54999.45001,1,1,1Z"/>
      </g>
    </g>
  </g>
</svg>