<?xml version="1.0" encoding="UTF-8"?>
<svg xmlns="http://www.w3.org/2000/svg" version="1.1" viewBox="0 0 48 48">
  <!-- Generator: Adobe Illustrator 28.7.1, SVG Export Plug-In . SVG Version: 1.2.0 Build 142)  -->
  <g>
    <g id="Glyph">
      <g>
        <path d="M12.59863,19.5l1.73145-3c.17871-.30957.17871-.69043,0-1l-1.73145-3c-.17871-.30957-.50879-.5-.86621-.5h-3.46484c-.35742,0-.6875.19043-.86621.5l-1.73145,3c-.17871.30957-.17871.69043,0,1l1.73145,3c.17871.30957.50879.5.86621.5h3.46484c.35742,0,.6875-.19043.86621-.5Z"/>
        <path d="M42.33008,23.5l-1.73145-3c-.17871-.30957-.50879-.5-.86621-.5h-3.46484c-.35742,0-.6875.19043-.86621.5l-1.73145,3c-.17871.30957-.17871.69043,0,1l1.73145,3c.17871.30957.50879.5.86621.5h3.46484c.35742,0,.6875-.19043.86621-.5l1.73145-3c.17871-.30957.17871-.69043,0-1Z"/>
        <path d="M18,9h12c1.10455,0,2-.89545,2-2,0-1.10461-.89545-2-2-2h-12c-1.10455,0-2,.89539-2,2,0,1.10455.89545,2,2,2Z"/>
        <path d="M24,24.49512c-.46387.6084-1,1.52344-1,2.50488s.53516,1.89551,1,2.50488c.46387-.6084,1-1.52344,1-2.50488s-.53516-1.89551-1-2.50488Z"/>
        <path d="M26.12109,33.46484c-.69336.69336-.96191,1.71875-1.06348,2.47754.75781-.10156,1.78418-.37012,2.47754-1.06348.69434-.69434.96191-1.71973,1.06445-2.47852-.75879.10254-1.78418.37012-2.47852,1.06445Z"/>
        <path d="M30,23.74121v-12.74121h-12v2h3.39648c.55273,0,1,.44727,1,1s-.44727,1-1,1h-3.39648v2h3.39648c.55273,0,1,.44727,1,1s-.44727,1-1,1h-3.39648v4.74121l-8.22363,14.80176c-.52148.93945-.50781,2.05273.03711,2.97852s1.51172,1.47852,2.58594,1.47852h10.60059v-4.03925c-1.07739-.10712-2.75342-.47198-3.94922-1.66779-1.85742-1.85742-1.71387-4.87793-1.70605-5.00488.02734-.50977.43359-.91602.94336-.94336.11774-.013,2.84558-.13519,4.71191,1.44189v-1.37531c-.64185-.68011-2-2.35669-2-4.41132,0-2.62598,2.2373-4.65918,2.33301-4.74512.37891-.33984.95508-.33984,1.33398,0,.0957.08594,2.33301,2.11914,2.33301,4.74512,0,2.05463-1.35815,3.7312-2,4.41132v.37531c1.86639-1.5769,4.59509-1.453,4.71191-1.44189.50977.02734.91602.43359.94336.94336.00781.12695.15137,3.14746-1.70605,5.00488-1.19537,1.19537-2.8703,1.56042-3.94781,1.66772-.00055.01984-.00085.03723-.0014.05078v4.98853h10.60059c1.07422,0,2.04102-.55273,2.58594-1.47852s.55859-2.03906.03711-2.97852l-8.22363-14.80176Z"/>
        <path d="M20.46484,35.87891c.69336.69336,1.71875.96191,2.47754,1.06348-.10156-.75781-.37012-1.78418-1.06348-2.47754-.69434-.69434-1.71973-.96191-2.47852-1.06445.10254.75879.37012,1.78418,1.06445,2.47852Z"/>
      </g>
    </g>
  </g>
</svg>