<?xml version="1.0" encoding="UTF-8"?>
<svg xmlns="http://www.w3.org/2000/svg" version="1.1" viewBox="0 0 64 64">
  <!-- Generator: Adobe Illustrator 28.7.1, SVG Export Plug-In . SVG Version: 1.2.0 Build 142)  -->
  <g>
    <g id="Glyph">
      <g>
        <path d="M21,15h14c1.10455,0,2-.89545,2-2v-4c0-1.10461-.89545-2-2-2h-14c-1.10455,0-2,.89539-2,2v4c0,1.10455.89545,2,2,2ZM23,10h10c.55273,0,1,.44727,1,1s-.44727,1-1,1h-10c-.55273,0-1-.44727-1-1s.44727-1,1-1Z"/>
        <path d="M50,43c-3.85974,0-7,3.14026-7,7s3.14026,7,7,7,7-3.14026,7-7-3.14026-7-7-7ZM53.70703,48.70703l-4,4c-.19531.19531-.45117.29297-.70703.29297s-.51172-.09766-.70703-.29297l-2-2c-.39062-.39062-.39062-1.02344,0-1.41406s1.02344-.39062,1.41406,0l1.29297,1.29297,3.29297-3.29297c.39062-.39062,1.02344-.39062,1.41406,0s.39062,1.02344,0,1.41406Z"/>
        <rect x="17" y="21" width="2" height="2"/>
        <rect x="17" y="29" width="2" height="2"/>
        <path d="M21,45c.73969,0,1.42438-.21539,2.01929-.56665l-.72632-.72632c-.39062-.39062-.39062-1.02344,0-1.41406s1.02344-.39062,1.41406,0l.72632.72632c.35126-.59491.56665-1.2796.56665-2.01929,0-2.20605-1.79395-4-4-4s-4,1.79395-4,4,1.79395,4,4,4Z"/>
        <path d="M41.52002,53H14c-1.65002,0-3-1.35004-3-3V16c0-1.65002,1.34998-3,3-3h3v-4h-4c-3.31,0-6,2.69-6,6v36c0,3.31,2.69,6,6,6h31.35999c-1.28998-1.04004-2.27997-2.42004-2.83997-4Z"/>
        <path d="M45,16v26.52954c1.17065-.78607,2.53094-1.3092,4-1.46954V15c0-3.31-2.69-6-6-6h-4v4h3c1.6543,0,3,1.3457,3,3Z"/>
        <path d="M13,16v34c0,.54999.45001,1,1,1h27.06c-.03998-.33002-.06-.66003-.06-1,0-2.16003.77002-4.13,2.03998-5.67999-.00995-.07001-.03998-.14001-.03998-.21002v-28.10999c0-.54999-.45001-1-1-1h-3.54999c-.70001,1.19-1.97003,2-3.45001,2h-14c-1.47998,0-2.75-.81-3.45001-2h-3.54999c-.54999,0-1,.45001-1,1ZM35,45c1.07001,0,2.07001-.42004,2.84003-1.17004.38995-.38995,1.01996-.38995,1.40997.01001.39001.39001.39001,1.02002-.01001,1.41003-1.14001,1.13-2.64001,1.75-4.23999,1.75-3.31,0-6-2.69-6-6s2.69-6,6-6c1.59998,0,3.09998.62,4.23999,1.75.40002.39001.40002,1.01996.01001,1.40997-.39001.40002-1.02002.40002-1.40997.01001-.77002-.75-1.77002-1.16998-2.84003-1.16998-2.21002,0-4,1.78998-4,4s1.78998,4,4,4ZM24,19h16c.54999,0,1,.45001,1,1s-.45001,1-1,1h-16c-.54999,0-1-.45001-1-1s.45001-1,1-1ZM24,23h16c.54999,0,1,.45001,1,1s-.45001,1-1,1h-16c-.54999,0-1-.45001-1-1s.45001-1,1-1ZM24,27h16c.54999,0,1,.45001,1,1s-.45001,1-1,1h-16c-.54999,0-1-.45001-1-1s.45001-1,1-1ZM24,31h16c.54999,0,1,.45001,1,1s-.45001,1-1,1h-16c-.54999,0-1-.45001-1-1s.45001-1,1-1ZM15,20c0-.54999.45001-1,1-1h4c.54999,0,1,.45001,1,1v4c0,.54999-.45001,1-1,1h-4c-.54999,0-1-.45001-1-1v-4ZM15,28c0-.54999.45001-1,1-1h4c.54999,0,1,.45001,1,1v4c0,.54999-.45001,1-1,1h-4c-.54999,0-1-.45001-1-1v-4ZM21,35c3.31,0,6,2.69,6,6,0,1.28998-.41998,2.48999-1.10999,3.46997l.82001.82001c.38989.38995.38995,1.02991,0,1.41998-.37311.37305-1.02191.37823-1.42004,0l-.82001-.81995c-.97998.68994-2.17999,1.10999-3.46997,1.10999-3.31,0-6-2.69-6-6s2.69-6,6-6Z"/>
      </g>
    </g>
  </g>
</svg>