<?xml version="1.0" encoding="UTF-8"?>
<svg xmlns="http://www.w3.org/2000/svg" version="1.1" viewBox="0 0 64 64">
  <!-- Generator: Adobe Illustrator 28.7.1, SVG Export Plug-In . SVG Version: 1.2.0 Build 142)  -->
  <g>
    <g id="Glyph">
      <g>
        <path d="M51.99999,41.13575c0-5.99805-4.87988-10.87793-10.87842-10.87793s-10.87891,4.87988-10.87891,10.87793c0,5.99902,4.88037,10.87891,10.87891,10.87891s10.87842-4.87988,10.87842-10.87891Z"/>
        <path d="M55.83001,50.18464l-3.23004-3.22998c-1.22998,2.44-3.21997,4.42999-5.65997,5.65997l3.22998,3.22998c1.50604,1.50604,4.12419,1.53585,5.66004,0,1.56-1.56,1.56-4.09998,0-5.65997Z"/>
        <path d="M16.99999,7.01466h-7c-1.6543,0-3,1.3457-3,3v34c0,1.6543,1.3457,3,3,3h1V12.01466c0-.55273.44775-1,1-1h5v-4Z"/>
        <path d="M38.99999,28.43464v-15.41998h-4v1c0,1.64996-1.34998,3-3,3h-12c-1.65002,0-3-1.35004-3-3v-1h-4v34h16.66998c-.91998-1.76001-1.42999-3.76001-1.42999-5.88,0-6.38,4.66003-11.69,10.76001-12.70001ZM31.99999,21.01466h4c.54999,0,1,.45001,1,1s-.45001,1-1,1h-4c-.54999,0-1-.45001-1-1s.45001-1,1-1ZM31.99999,25.01466h4c.54999,0,1,.45001,1,1s-.45001,1-1,1h-4c-.54999,0-1-.45001-1-1s.45001-1,1-1ZM19.99999,22.01466c.54999,0,1,.45001,1,1s-.45001,1-1,1h-1v1c0,1.64996-1.34998,3-3,3-.54999,0-1-.45001-1-1s.45001-1,1-1,1-.45001,1-1v-1h-1c-.54999,0-1-.45001-1-1s.45001-1,1-1h1v-1c0-1.65002,1.34998-3,3-3,.54999,0,1,.45001,1,1s-.45001,1-1,1-1,.45001-1,1v1h1ZM27.16998,27.56464l-1.16998-1.75-1.16998,1.75c-.28783.43051-.92162.60372-1.38001.27997-.46002-.29999-.59003-.91998-.28003-1.37994l1.63-2.45001-1.63-2.45001c-.31-.46002-.17999-1.08002.28003-1.38.45001-.31,1.07001-.17999,1.38.28003l1.16998,1.75,1.16998-1.75c.29999-.46002.92004-.59003,1.38-.28003.46002.29999.59003.91998.28003,1.38l-1.63,2.45001,1.63,2.45001c.31.45996.17999,1.07996-.28014,1.38002-.45093.31839-1.07909.16796-1.3799-.28004Z"/>
        <path d="M40.99999,12.01466v16.23999h.12c1.34998,0,2.66003.21002,3.88.59998V10.01466c0-1.65002-1.34998-3-3-3h-7v4h5c.54999,0,1,.45001,1,1Z"/>
        <path d="M19.99999,15.01466h12c.54999,0,1-.45001,1-1v-7h-14v7c0,.54999.45001,1,1,1ZM21.99999,10.01466h8c.54999,0,1,.45001,1,1s-.45001,1-1,1h-8c-.54999,0-1-.45001-1-1s.45001-1,1-1Z"/>
      </g>
    </g>
  </g>
</svg>