<?xml version="1.0" encoding="UTF-8"?>
<svg id="Glyph" xmlns="http://www.w3.org/2000/svg" version="1.1" viewBox="0 0 48 48">
  <rect x="15" y="27" width="18" height="2" fill="#000" stroke-width="0"/>
  <path d="M32,11h-16c-.55127,0-1,.44824-1,1v13h18v-13c0-.55176-.44824-1-1-1ZM18,23c-.55231,0-1-.44775-1-1,0-.55231.44769-1,1-1s1,.44769,1,1c0,.55225-.44769,1-1,1ZM22,23c-.55231,0-1-.44775-1-1,0-.55231.44769-1,1-1s1,.44769,1,1c0,.55225-.44769,1-1,1ZM26,23c-.55231,0-1-.44775-1-1,0-.55231.44769-1,1-1s1,.44769,1,1c0,.55225-.44769,1-1,1ZM30,23c-.55231,0-1-.44775-1-1,0-.55231.44769-1,1-1s1,.44769,1,1c0,.55225-.44769,1-1,1ZM31,18c0,.55273-.44727,1-1,1h-12c-.55225,0-1-.44727-1-1v-4c0-.55273.44775-1,1-1h12c.55273,0,1,.44727,1,1v4Z" fill="#000" stroke-width="0"/>
  <rect x="19" y="15" width="10" height="2" fill="#000" stroke-width="0"/>
  <path d="M33,5H15c-3.30859,0-6,2.69141-6,6v23.20312c0,.69531.18262,1.38184.52734,1.98438l3.02881,5.30078c.53271.93262,1.53076,1.51172,2.60449,1.51172h17.67822c1.07324,0,2.07227-.5791,2.60547-1.51172l3.02832-5.30078c.34473-.60352.52734-1.29004.52734-1.98438V11c0-3.30859-2.69141-6-6-6ZM35,33.9375c0,.17383-.04492.34473-.13184.49609l-2.32129,4.0625c-.17773.31152-.50977.50391-.86816.50391h-15.35693c-.35889,0-.68994-.19238-.86816-.50391l-2.32178-4.0625c-.08643-.15137-.13184-.32227-.13184-.49609V12c0-1.6543,1.3457-3,3-3h16c1.6543,0,3,1.3457,3,3v21.9375Z" fill="#000" stroke-width="0"/>
  <polygon points="15 33.67188 16.90186 37 31.09863 37 33 33.67188 33 31 15 31 15 33.67188" fill="#000" stroke-width="0"/>
</svg>