<?xml version="1.0" encoding="UTF-8"?>
<svg xmlns="http://www.w3.org/2000/svg" version="1.1" viewBox="0 0 64 64">
  <!-- Generator: Adobe Illustrator 28.7.1, SVG Export Plug-In . SVG Version: 1.2.0 Build 142)  -->
  <g>
    <g id="Glyph">
      <g>
        <path d="M54.96503,37.17334c.01062-.05841.03497-.11182.03497-.17334v-6c0-9.64551-7.63232-17.52045-17.1712-17.95801-.40228-1.18304-1.51141-2.04199-2.8288-2.04199h-6c-1.31738,0-2.42651.85895-2.8288,2.04199-9.53894.43756-17.1712,8.3125-17.1712,17.95801v6c0,.06152.02435.11493.03497.17334-1.17944.40424-2.03497,1.51184-2.03497,2.82666v4c0,1.6543,1.3457,3,3,3h3v-10h-2v-6c0-8.55121,6.74884-15.5368,15.19696-15.95929.42511,1.14062,1.51605,1.95929,2.80304,1.95929h6c1.28699,0,2.37799-.81866,2.8031-1.95929,8.44812.42249,15.1969,7.40808,15.1969,15.95929v6h-2v10h3c1.6543,0,3-1.3457,3-3v-4c0-1.31482-.85553-2.42242-2.03497-2.82666Z"/>
        <path d="M47,31h-30c-1.10455,0-2,.89539-2,2v2h34v-2c0-1.10461-.89545-2-2-2Z"/>
        <path d="M15,51c0,1.10455.89545,2,2,2h9c.33435,0,.64655-.16711.83203-.44531l2.57422-3.86133c.60236-.90356,1.60925-1.5152,2.69464-1.48083.97943.03101,1.84753.51331,2.3952,1.33435l2.67188,4.00781c.18549.2782.49774.44531.83209.44531h8.99994c1.10455,0,2-.89545,2-2v-14H15v14ZM41.29297,40.29297c.39062-.39062,1.02344-.39062,1.41406,0l3,3c.39061.39061.39062,1.02338.00005,1.41401-.36972.36977-1.01993.39422-1.41411.00005l-3-3c-.39062-.39062-.39062-1.02344,0-1.41406ZM36.29297,40.29297c.39062-.39062,1.02344-.39062,1.41406,0l8,8c.39058.39058.39062,1.02331.00012,1.41394-.36787.36799-1.02181.39249-1.41418.00012l-8-8c-.39062-.39062-.39062-1.02344,0-1.41406ZM36.29297,45.29297c.39062-.39062,1.02344-.39062,1.41406,0l3,3c.39062.39062.39062,1.02341.00003,1.41403-.37025.37028-1.01852.3956-1.41409.00003l-3-3c-.39062-.39062-.39062-1.02344,0-1.41406ZM27.70703,46.70703s-3,3-3.00002,3.00002c-.38747.38744-1.0277.38632-1.41404-.00002-.39062-.39062-.39062-1.02344,0-1.41406l3-3c.39062-.39062,1.02344-.39062,1.41406,0s.39062,1.02344,0,1.41406ZM18.29297,43.29297l3-3c.39062-.39062,1.02344-.39062,1.41406,0s.39062,1.02344,0,1.41406c0,0-3,3-3.00002,3.00002-.38742.3874-1.0276.38642-1.41404-.00002-.39062-.39062-.39062-1.02344,0-1.41406ZM18.29297,48.29297l8-8c.39062-.39062,1.02344-.39062,1.41406,0s.39062,1.02344,0,1.41406l-7.99998,7.99998c-.36959.36959-1.02137.39274-1.41409.00002-.39062-.39062-.39062-1.02344,0-1.41406Z"/>
      </g>
    </g>
  </g>
</svg>