<?xml version="1.0" encoding="UTF-8"?>
<svg xmlns="http://www.w3.org/2000/svg" version="1.1" viewBox="0 0 48 48">
  <!-- Generator: Adobe Illustrator 28.7.1, SVG Export Plug-In . SVG Version: 1.2.0 Build 142)  -->
  <g>
    <g id="Glyph">
      <g>
        <circle cx="40" cy="29" r="3"/>
        <circle cx="20" cy="11" r="1"/>
        <path d="M29,25h-10c-1.09998,0-2,.89996-2,2v14c0,1.09998.90002,2,2,2h10c1.09998,0,2-.90002,2-2v-14c0-1.10004-.90002-2-2-2ZM29,34c0,2.76001-2.23999,5-5,5s-5-2.23999-5-5v-6c0-.54999.45001-1,1-1h8c.54999,0,1,.45001,1,1v6Z"/>
        <rect x="20" y="21" width="8" height="2"/>
        <circle cx="28" cy="11" r="1"/>
        <path d="M21,34c0,1.6543,1.3457,3,3,3s3-1.3457,3-3v-5h-6v5Z"/>
        <path d="M33,7c0-1.10004-.90002-2-2-2h-14c-1.09998,0-2,.89996-2,2v10c0,1.09998.90002,2,2,2h14c1.09998,0,2-.90002,2-2V7ZM17,11c0-1.65002,1.34998-3,3-3s3,1.34998,3,3-1.34998,3-3,3-3-1.35004-3-3ZM28,17.5h-8c-.54999,0-1-.45001-1-1s.45001-1,1-1h8c.54999,0,1,.45001,1,1s-.45001,1-1,1ZM28,14c-1.65002,0-3-1.35004-3-3s1.34998-3,3-3,3,1.34998,3,3-1.34998,3-3,3Z"/>
        <path d="M33,27v4h2.40997c-.25995-.60999-.40997-1.29004-.40997-2,0-.71002.15002-1.39001.40997-2h-2.40997Z"/>
        <path d="M10,17h3v-8h-2v-3c0-.54999-.45001-1-1-1s-1,.45001-1,1v10c0,.54999.45001,1,1,1Z"/>
        <path d="M39,16V6c0-.54999-.45001-1-1-1s-1,.45001-1,1v3h-2v8h3c.54999,0,1-.45001,1-1Z"/>
        <path d="M38,33.58997v7.41003c0,.54999.21997,1.04999.59003,1.40997.35999.37.85999.59003,1.40997.59003,1.09998,0,2-.90002,2-2v-7.41003c-.60999.26001-1.28998.41003-2,.41003s-1.39001-.15002-2-.41003Z"/>
        <circle cx="8" cy="29" r="3"/>
        <path d="M13,29c0,.70996-.15002,1.39001-.40997,2h2.40997v-4h-2.40997c.25995.60999.40997,1.28998.40997,2Z"/>
        <path d="M6,33.58997v7.41003c0,1.10455.89545,2,2,2s2-.89545,2-2v-7.41003c-.60999.26001-1.28998.41003-2,.41003s-1.39001-.15002-2-.41003Z"/>
      </g>
    </g>
  </g>
</svg>